<svg width="361" height="59" viewBox="0 0 361 59" fill="none" xmlns="http://www.w3.org/2000/svg">
<g clip-path="url(#clip0_527_12455)">
<path d="M67.7248 0H3.27521C1.46636 0 0 1.438 0 3.21186V48.7881C0 50.562 1.46636 52 3.27521 52H67.7248C69.5336 52 71 50.562 71 48.7881V3.21186C71 1.438 69.5336 0 67.7248 0Z" fill="#FBC02D"/>
<path d="M47.4049 35.838C46.3556 35.8369 45.3074 35.7682 44.2673 35.6324C43.2956 35.5167 42.3453 35.268 41.444 34.8937C40.6568 34.5765 39.9647 34.068 39.433 33.4163C38.9053 32.7083 38.6396 31.8449 38.6797 30.9688V9.72559H44.1755V19.9072L43.1209 18.1728C43.5973 17.6413 44.1879 17.2201 44.8502 16.9394C45.5338 16.6376 46.2535 16.4217 46.9922 16.2971C47.5887 16.1867 48.1933 16.1244 48.8001 16.1108C51.6081 16.1108 53.7457 16.9416 55.213 18.6032C56.6803 20.2648 57.4139 22.6929 57.4139 25.8877C57.459 27.4934 57.2037 29.0936 56.6607 30.6091C56.2276 31.7846 55.5054 32.8371 54.558 33.6732C53.6376 34.443 52.5583 35.0084 51.3941 35.3305C50.0959 35.6854 48.7525 35.8563 47.4049 35.838ZM47.3329 31.2643C48.2517 31.3083 49.1634 31.0848 49.953 30.6219C50.6041 30.1886 51.0974 29.5631 51.3614 28.8361C51.6627 27.9945 51.809 27.1071 51.7937 26.2153C51.8417 25.0694 51.65 23.9261 51.2304 22.8557C50.93 22.1065 50.3898 21.4731 49.691 21.0506C49.0016 20.6717 48.2212 20.4809 47.4311 20.4982C46.8761 20.5028 46.323 20.5631 45.7804 20.678C45.2128 20.7906 44.6668 20.99 44.1624 21.269V29.5363C44.149 29.727 44.179 29.9181 44.2504 30.0959C44.3218 30.2737 44.4327 30.4337 44.5751 30.5641C44.9035 30.8378 45.2983 31.0236 45.7215 31.1037C46.2505 31.2186 46.791 31.2747 47.3329 31.2707V31.2643Z" fill="white"/>
<path d="M13.9453 35.2855V10.6826H24.0264C28.2929 10.6826 31.4284 11.7233 33.4328 13.8045C35.4372 15.8858 36.4395 18.9478 36.4395 22.9905C36.4395 27.0246 35.4372 30.0801 33.4328 32.1571C31.4284 34.2341 28.2929 35.2726 24.0264 35.2726L13.9453 35.2855ZM20.0372 30.6797H23.3124C25.5701 30.6797 27.282 30.0651 28.4479 28.8361C29.6139 27.6027 30.1969 25.6627 30.1969 23.0033C30.1969 20.3439 29.6139 18.3397 28.4479 17.1192C27.282 15.8987 25.5723 15.282 23.3124 15.282H20.0372V30.6797Z" fill="white"/>
<path d="M34.1274 40.6493V42.2617H13.5918V40.6365L34.1274 40.6493Z" fill="white"/>
<path d="M54.6625 40.6493V42.2617H34.127V40.6365L54.6625 40.6493Z" fill="white"/>
</g>
<path d="M87.554 40.126C86.798 40.126 86.132 40 85.556 39.748C84.992 39.496 84.554 39.142 84.242 38.686C83.93 38.23 83.774 37.708 83.774 37.12C83.774 36.964 83.78 36.844 83.792 36.76H85.034C85.01 37.144 85.076 37.516 85.232 37.876C85.4 38.224 85.682 38.518 86.078 38.758C86.486 38.986 87.008 39.1 87.644 39.1C88.532 39.1 89.24 38.878 89.768 38.434C90.296 37.99 90.56 37.39 90.56 36.634C90.56 36.178 90.434 35.8 90.182 35.5C89.942 35.188 89.642 34.936 89.282 34.744C88.922 34.54 88.43 34.312 87.806 34.06C87.074 33.772 86.492 33.508 86.06 33.268C85.628 33.016 85.268 32.674 84.98 32.242C84.704 31.81 84.59 31.258 84.638 30.586C84.662 29.938 84.854 29.368 85.214 28.876C85.586 28.372 86.084 27.982 86.708 27.706C87.344 27.418 88.064 27.274 88.868 27.274C89.66 27.274 90.338 27.412 90.902 27.688C91.478 27.952 91.904 28.318 92.18 28.786C92.468 29.254 92.594 29.77 92.558 30.334H91.244C91.268 30.01 91.19 29.692 91.01 29.38C90.842 29.068 90.566 28.816 90.182 28.624C89.81 28.42 89.348 28.318 88.796 28.318C87.944 28.318 87.248 28.528 86.708 28.948C86.168 29.356 85.898 29.914 85.898 30.622C85.898 31.042 86.018 31.396 86.258 31.684C86.498 31.972 86.792 32.212 87.14 32.404C87.488 32.596 87.968 32.818 88.58 33.07C89.288 33.358 89.858 33.628 90.29 33.88C90.734 34.132 91.106 34.468 91.406 34.888C91.718 35.308 91.874 35.836 91.874 36.472C91.874 36.628 91.868 36.748 91.856 36.832C91.808 37.444 91.604 38.002 91.244 38.506C90.884 39.01 90.386 39.406 89.75 39.694C89.126 39.982 88.394 40.126 87.554 40.126ZM99.7473 30.028C100.575 30.028 101.283 30.19 101.871 30.514C102.459 30.826 102.903 31.258 103.203 31.81C103.515 32.362 103.671 32.992 103.671 33.7C103.671 34.024 103.647 34.312 103.599 34.564C103.527 34.924 103.455 35.248 103.383 35.536H95.2293C95.1933 35.764 95.1753 35.98 95.1753 36.184C95.1753 37.108 95.4513 37.822 96.0033 38.326C96.5673 38.83 97.2813 39.082 98.1453 39.082C98.9733 39.082 99.6993 38.884 100.323 38.488C100.947 38.092 101.403 37.558 101.691 36.886H103.041C102.633 37.846 101.979 38.632 101.079 39.244C100.191 39.844 99.1533 40.144 97.9653 40.144C96.7413 40.144 95.7573 39.796 95.0133 39.1C94.2813 38.392 93.9153 37.432 93.9153 36.22C93.9153 35.86 93.9513 35.482 94.0233 35.086C94.2033 34.066 94.5633 33.172 95.1033 32.404C95.6553 31.636 96.3333 31.048 97.1373 30.64C97.9413 30.232 98.8113 30.028 99.7473 30.028ZM102.303 34.6C102.363 34.264 102.393 33.982 102.393 33.754C102.393 32.902 102.123 32.248 101.583 31.792C101.043 31.336 100.353 31.108 99.5133 31.108C98.9013 31.108 98.3133 31.24 97.7493 31.504C97.1853 31.768 96.6933 32.164 96.2733 32.692C95.8533 33.22 95.5653 33.856 95.4093 34.6H102.303ZM111.323 29.992C112.331 29.992 113.135 30.268 113.735 30.82C114.347 31.36 114.653 32.152 114.653 33.196C114.653 33.58 114.623 33.928 114.563 34.24L113.537 40H112.295L113.285 34.384C113.333 34.108 113.357 33.814 113.357 33.502C113.357 32.71 113.141 32.11 112.709 31.702C112.277 31.294 111.671 31.09 110.891 31.09C109.943 31.09 109.133 31.39 108.461 31.99C107.789 32.59 107.351 33.472 107.147 34.636V34.582L106.193 40H104.933L106.661 30.172H107.921L107.615 31.864C108.035 31.264 108.569 30.802 109.217 30.478C109.865 30.154 110.567 29.992 111.323 29.992ZM118.411 37.336C118.375 37.552 118.357 37.738 118.357 37.894C118.357 38.278 118.459 38.548 118.663 38.704C118.879 38.848 119.227 38.92 119.707 38.92H120.859L120.661 40H119.311C118.567 40 118.009 39.856 117.637 39.568C117.265 39.28 117.079 38.806 117.079 38.146C117.079 37.882 117.103 37.612 117.151 37.336L118.231 31.234H116.863L117.061 30.172H118.429L118.861 27.706H120.121L119.689 30.172H122.407L122.209 31.234H119.491L118.411 37.336ZM125.439 28.318C125.211 28.318 125.025 28.252 124.881 28.12C124.737 27.976 124.665 27.79 124.665 27.562C124.665 27.25 124.773 26.992 124.989 26.788C125.205 26.572 125.463 26.464 125.763 26.464C125.991 26.464 126.171 26.53 126.303 26.662C126.447 26.794 126.519 26.968 126.519 27.184C126.519 27.496 126.411 27.766 126.195 27.994C125.979 28.21 125.727 28.318 125.439 28.318ZM125.727 30.172L123.999 40H122.739L124.467 30.172H125.727ZM128.941 37.336C128.905 37.552 128.887 37.738 128.887 37.894C128.887 38.278 128.989 38.548 129.193 38.704C129.409 38.848 129.757 38.92 130.237 38.92H131.389L131.191 40H129.841C129.097 40 128.539 39.856 128.167 39.568C127.795 39.28 127.609 38.806 127.609 38.146C127.609 37.882 127.633 37.612 127.681 37.336L128.761 31.234H127.393L127.591 30.172H128.958L129.391 27.706H130.651L130.219 30.172H132.937L132.739 31.234H130.021L128.941 37.336ZM139.281 30.028C140.109 30.028 140.817 30.19 141.405 30.514C141.993 30.826 142.437 31.258 142.737 31.81C143.049 32.362 143.205 32.992 143.205 33.7C143.205 34.024 143.181 34.312 143.133 34.564C143.061 34.924 142.989 35.248 142.917 35.536H134.763C134.727 35.764 134.709 35.98 134.709 36.184C134.709 37.108 134.985 37.822 135.537 38.326C136.101 38.83 136.815 39.082 137.679 39.082C138.507 39.082 139.233 38.884 139.857 38.488C140.481 38.092 140.937 37.558 141.225 36.886H142.575C142.167 37.846 141.513 38.632 140.613 39.244C139.725 39.844 138.687 40.144 137.499 40.144C136.275 40.144 135.291 39.796 134.547 39.1C133.815 38.392 133.449 37.432 133.449 36.22C133.449 35.86 133.485 35.482 133.557 35.086C133.737 34.066 134.097 33.172 134.637 32.404C135.189 31.636 135.867 31.048 136.671 30.64C137.475 30.232 138.345 30.028 139.281 30.028ZM141.837 34.6C141.897 34.264 141.927 33.982 141.927 33.754C141.927 32.902 141.657 32.248 141.117 31.792C140.577 31.336 139.887 31.108 139.047 31.108C138.435 31.108 137.847 31.24 137.283 31.504C136.719 31.768 136.227 32.164 135.807 32.692C135.387 33.22 135.099 33.856 134.943 34.6H141.837ZM150.062 35.086C150.242 34.066 150.602 33.178 151.142 32.422C151.694 31.654 152.366 31.066 153.158 30.658C153.95 30.238 154.808 30.028 155.732 30.028C156.944 30.028 157.886 30.328 158.558 30.928C159.242 31.528 159.608 32.344 159.656 33.376H158.306C158.27 32.668 158.006 32.116 157.514 31.72C157.034 31.312 156.38 31.108 155.552 31.108C154.532 31.108 153.632 31.456 152.852 32.152C152.084 32.836 151.586 33.814 151.358 35.086C151.298 35.386 151.268 35.728 151.268 36.112C151.268 37.072 151.526 37.81 152.042 38.326C152.57 38.83 153.266 39.082 154.13 39.082C154.97 39.082 155.702 38.884 156.326 38.488C156.95 38.08 157.412 37.516 157.712 36.796H159.062C158.654 37.804 158 38.614 157.1 39.226C156.2 39.838 155.15 40.144 153.95 40.144C152.738 40.144 151.766 39.796 151.034 39.1C150.314 38.404 149.954 37.45 149.954 36.238C149.954 35.866 149.99 35.482 150.062 35.086ZM165.133 40.144C164.317 40.144 163.597 39.982 162.973 39.658C162.349 39.322 161.863 38.854 161.515 38.254C161.179 37.642 161.011 36.928 161.011 36.112C161.011 35.008 161.263 33.994 161.767 33.07C162.271 32.134 162.973 31.396 163.873 30.856C164.773 30.304 165.775 30.028 166.879 30.028C167.695 30.028 168.415 30.196 169.039 30.532C169.663 30.856 170.149 31.324 170.497 31.936C170.845 32.536 171.019 33.244 171.019 34.06C171.019 35.176 170.761 36.196 170.245 37.12C169.729 38.044 169.021 38.782 168.121 39.334C167.233 39.874 166.237 40.144 165.133 40.144ZM165.277 39.082C166.129 39.082 166.891 38.854 167.563 38.398C168.247 37.942 168.775 37.336 169.147 36.58C169.531 35.824 169.723 35.008 169.723 34.132C169.723 33.148 169.435 32.398 168.859 31.882C168.295 31.366 167.575 31.108 166.699 31.108C165.847 31.108 165.085 31.336 164.413 31.792C163.753 32.248 163.237 32.854 162.865 33.61C162.493 34.366 162.307 35.182 162.307 36.058C162.307 37.03 162.589 37.78 163.153 38.308C163.717 38.824 164.425 39.082 165.277 39.082ZM185.844 29.992C186.828 29.992 187.614 30.262 188.202 30.802C188.802 31.342 189.102 32.134 189.102 33.178C189.102 33.502 189.066 33.856 188.994 34.24L187.968 40H186.726L187.734 34.384C187.794 34.024 187.824 33.724 187.824 33.484C187.824 32.704 187.614 32.11 187.194 31.702C186.774 31.294 186.18 31.09 185.412 31.09C184.56 31.09 183.81 31.36 183.162 31.9C182.526 32.44 182.082 33.22 181.83 34.24L180.786 40H179.544L180.552 34.384C180.612 34.024 180.642 33.724 180.642 33.484C180.642 32.704 180.432 32.11 180.012 31.702C179.592 31.294 179.004 31.09 178.248 31.09C177.336 31.09 176.55 31.39 175.89 31.99C175.23 32.578 174.792 33.43 174.576 34.546L173.622 40H172.362L174.09 30.172H175.35L175.044 31.882C175.452 31.27 175.974 30.802 176.61 30.478C177.258 30.154 177.942 29.992 178.662 29.992C179.514 29.992 180.222 30.196 180.786 30.604C181.35 31.012 181.704 31.612 181.848 32.404C182.244 31.624 182.802 31.03 183.522 30.622C184.242 30.202 185.016 29.992 185.844 29.992ZM195.087 40.144C194.271 40.144 193.551 39.982 192.927 39.658C192.303 39.322 191.817 38.854 191.469 38.254C191.133 37.642 190.965 36.928 190.965 36.112C190.965 35.008 191.217 33.994 191.721 33.07C192.225 32.134 192.927 31.396 193.827 30.856C194.727 30.304 195.729 30.028 196.833 30.028C197.649 30.028 198.369 30.196 198.993 30.532C199.617 30.856 200.103 31.324 200.451 31.936C200.799 32.536 200.973 33.244 200.973 34.06C200.973 35.176 200.715 36.196 200.199 37.12C199.683 38.044 198.975 38.782 198.075 39.334C197.187 39.874 196.191 40.144 195.087 40.144ZM195.231 39.082C196.083 39.082 196.845 38.854 197.517 38.398C198.201 37.942 198.729 37.336 199.101 36.58C199.485 35.824 199.677 35.008 199.677 34.132C199.677 33.148 199.389 32.398 198.813 31.882C198.249 31.366 197.529 31.108 196.653 31.108C195.801 31.108 195.039 31.336 194.367 31.792C193.707 32.248 193.191 32.854 192.819 33.61C192.447 34.366 192.261 35.182 192.261 36.058C192.261 37.03 192.543 37.78 193.107 38.308C193.671 38.824 194.379 39.082 195.231 39.082ZM213.636 30.028C214.464 30.028 215.172 30.19 215.76 30.514C216.348 30.826 216.792 31.258 217.092 31.81C217.404 32.362 217.56 32.992 217.56 33.7C217.56 34.024 217.536 34.312 217.488 34.564C217.416 34.924 217.344 35.248 217.272 35.536H209.118C209.082 35.764 209.064 35.98 209.064 36.184C209.064 37.108 209.34 37.822 209.892 38.326C210.456 38.83 211.17 39.082 212.034 39.082C212.862 39.082 213.588 38.884 214.212 38.488C214.836 38.092 215.292 37.558 215.58 36.886H216.93C216.522 37.846 215.868 38.632 214.968 39.244C214.08 39.844 213.042 40.144 211.854 40.144C210.63 40.144 209.646 39.796 208.902 39.1C208.17 38.392 207.804 37.432 207.804 36.22C207.804 35.86 207.84 35.482 207.912 35.086C208.092 34.066 208.452 33.172 208.992 32.404C209.544 31.636 210.222 31.048 211.026 30.64C211.83 30.232 212.7 30.028 213.636 30.028ZM216.192 34.6C216.252 34.264 216.282 33.982 216.282 33.754C216.282 32.902 216.012 32.248 215.472 31.792C214.932 31.336 214.242 31.108 213.402 31.108C212.79 31.108 212.202 31.24 211.638 31.504C211.074 31.768 210.582 32.164 210.162 32.692C209.742 33.22 209.454 33.856 209.298 34.6H216.192ZM225.211 29.992C226.219 29.992 227.023 30.268 227.623 30.82C228.235 31.36 228.541 32.152 228.541 33.196C228.541 33.58 228.511 33.928 228.451 34.24L227.425 40H226.183L227.173 34.384C227.221 34.108 227.245 33.814 227.245 33.502C227.245 32.71 227.029 32.11 226.597 31.702C226.165 31.294 225.559 31.09 224.779 31.09C223.831 31.09 223.021 31.39 222.349 31.99C221.677 32.59 221.239 33.472 221.035 34.636V34.582L220.081 40H218.821L220.549 30.172H221.809L221.503 31.864C221.923 31.264 222.457 30.802 223.105 30.478C223.753 30.154 224.455 29.992 225.211 29.992ZM237.608 37.336C237.572 37.552 237.554 37.738 237.554 37.894C237.554 38.278 237.656 38.548 237.86 38.704C238.076 38.848 238.424 38.92 238.904 38.92H240.056L239.858 40H238.508C237.764 40 237.206 39.856 236.834 39.568C236.462 39.28 236.276 38.806 236.276 38.146C236.276 37.882 236.3 37.612 236.348 37.336L237.428 31.234H236.06L236.258 30.172H237.626L238.058 27.706H239.318L238.886 30.172H241.604L241.406 31.234H238.688L237.608 37.336ZM252.178 30.172L250.45 40H249.19L249.496 38.272C249.088 38.884 248.56 39.352 247.912 39.676C247.264 40 246.568 40.162 245.824 40.162C244.816 40.162 244.006 39.892 243.394 39.352C242.782 38.8 242.476 38.002 242.476 36.958C242.476 36.574 242.506 36.226 242.566 35.914L243.574 30.172H244.816L243.826 35.77C243.778 36.046 243.754 36.334 243.754 36.634C243.754 37.426 243.97 38.032 244.402 38.452C244.846 38.86 245.458 39.064 246.238 39.064C247.15 39.064 247.936 38.788 248.596 38.236C249.256 37.672 249.7 36.85 249.928 35.77L250.918 30.172H252.178ZM258.924 35.068C259.104 34.06 259.464 33.178 260.004 32.422C260.544 31.654 261.204 31.066 261.984 30.658C262.776 30.238 263.622 30.028 264.522 30.028C265.458 30.028 266.226 30.244 266.826 30.676C267.426 31.108 267.816 31.66 267.996 32.332L268.374 30.172H269.634L267.906 40H266.646L267.024 37.822C266.616 38.494 266.028 39.052 265.26 39.496C264.504 39.928 263.658 40.144 262.722 40.144C261.942 40.144 261.258 39.982 260.67 39.658C260.082 39.334 259.626 38.878 259.302 38.29C258.978 37.69 258.816 36.988 258.816 36.184C258.816 35.836 258.852 35.464 258.924 35.068ZM267.51 35.086C267.57 34.75 267.6 34.45 267.6 34.186C267.6 33.25 267.318 32.506 266.754 31.954C266.19 31.402 265.458 31.126 264.558 31.126C263.862 31.126 263.208 31.282 262.596 31.594C261.996 31.906 261.486 32.362 261.066 32.962C260.646 33.55 260.364 34.252 260.22 35.068C260.16 35.428 260.13 35.734 260.13 35.986C260.13 36.934 260.406 37.684 260.958 38.236C261.522 38.776 262.254 39.046 263.154 39.046C263.826 39.046 264.468 38.884 265.08 38.56C265.704 38.236 266.226 37.774 266.646 37.174C267.078 36.574 267.366 35.878 267.51 35.086ZM281.024 30.172L279.296 40H278.036L278.342 38.272C277.934 38.884 277.406 39.352 276.758 39.676C276.11 40 275.414 40.162 274.67 40.162C273.662 40.162 272.852 39.892 272.24 39.352C271.628 38.8 271.322 38.002 271.322 36.958C271.322 36.574 271.352 36.226 271.412 35.914L272.42 30.172H273.662L272.672 35.77C272.624 36.046 272.6 36.334 272.6 36.634C272.6 37.426 272.816 38.032 273.248 38.452C273.692 38.86 274.304 39.064 275.084 39.064C275.996 39.064 276.782 38.788 277.442 38.236C278.102 37.672 278.546 36.85 278.774 35.77L279.764 30.172H281.024ZM284.261 37.336C284.225 37.552 284.207 37.738 284.207 37.894C284.207 38.278 284.309 38.548 284.513 38.704C284.729 38.848 285.077 38.92 285.557 38.92H286.709L286.511 40H285.161C284.417 40 283.859 39.856 283.487 39.568C283.115 39.28 282.929 38.806 282.929 38.146C282.929 37.882 282.953 37.612 283.001 37.336L284.081 31.234H282.713L282.911 30.172H284.279L284.711 27.706H285.971L285.539 30.172H288.257L288.059 31.234H285.341L284.261 37.336ZM292.909 40.144C292.093 40.144 291.373 39.982 290.749 39.658C290.125 39.322 289.639 38.854 289.291 38.254C288.955 37.642 288.787 36.928 288.787 36.112C288.787 35.008 289.039 33.994 289.543 33.07C290.047 32.134 290.749 31.396 291.649 30.856C292.549 30.304 293.551 30.028 294.655 30.028C295.471 30.028 296.191 30.196 296.815 30.532C297.439 30.856 297.925 31.324 298.273 31.936C298.621 32.536 298.795 33.244 298.795 34.06C298.795 35.176 298.537 36.196 298.021 37.12C297.505 38.044 296.797 38.782 295.897 39.334C295.009 39.874 294.013 40.144 292.909 40.144ZM293.053 39.082C293.905 39.082 294.667 38.854 295.339 38.398C296.023 37.942 296.551 37.336 296.923 36.58C297.307 35.824 297.499 35.008 297.499 34.132C297.499 33.148 297.211 32.398 296.635 31.882C296.071 31.366 295.351 31.108 294.475 31.108C293.623 31.108 292.861 31.336 292.189 31.792C291.529 32.248 291.013 32.854 290.641 33.61C290.269 34.366 290.083 35.182 290.083 36.058C290.083 37.03 290.365 37.78 290.929 38.308C291.493 38.824 292.201 39.082 293.053 39.082Z" fill="#263238"/>
<defs>
<clipPath id="clip0_527_12455">
<rect width="71" height="52" fill="white"/>
</clipPath>
</defs>
</svg>
